<svg width="400" height="400" viewBox="0 0 400 400" fill="none" xmlns="http://www.w3.org/2000/svg">
<rect width="400" height="400" fill="#0D2965"/>
<path d="M164.325 275.91L125.46 275.871V229.399C125.46 219.469 129.311 214.301 137.808 213.121H164.326C183.236 213.121 195.469 225.044 195.469 244.341C195.469 264.161 183.546 275.891 164.326 275.91H164.325ZM125.46 150.564V138.331C125.46 127.627 129.989 122.537 139.918 121.879H159.816C176.868 121.879 187.088 132.079 187.088 149.17C187.088 162.177 180.081 177.371 160.435 177.371H125.46V150.564ZM213.953 196.94L206.927 192.991L213.063 187.746C220.205 181.61 232.167 167.809 232.167 144.002C232.167 107.536 203.888 84.0194 160.125 84.0194H110.188V84H104.498C91.5294 84.4839 81.1355 95.0328 81 108.078V314.989H161.112C209.753 314.989 241.148 288.51 241.148 247.496C241.148 225.412 231.005 206.54 213.953 196.94Z" fill="white"/>
<path d="M262.012 286.406C262.012 270.6 274.76 257.812 290.466 257.812C306.213 257.812 319.021 270.6 319.021 286.406C319.021 302.192 306.213 315 290.466 315C274.76 315 262.012 302.192 262.012 286.406" fill="#00BAFC"/>
</svg>
